# xmcd
#
# Track frame offsets:
#	225
#	11899
#	23517
#	35189
#	46851
#	58262
#	69696
#	82212
#	94723
#	106517
#	118272
#	130049
#	141821
#	153367
#	164890
#	176432
#	188002
#	199616
#	211255
#	225503
#	239713
#	244493
#	249282
#	254104
#	258889
#	263687
#	268488
#	273278
#	278044
#	282836
#	287654
#	290170
#	292715
#	295294
#	297829
#	300367
#	302923
#	305460
#	308018
#	310562
#	313117
#	314526
#	315926
#	317347
#	318764
#	320150
#	321568
#	322949
#	324360
#	325779
#
# Disc length: 4360 seconds
#
# Revision: 1
# Processed by: cddbd v1.5.2PL0 Copyright (c) Steve Scherf et al.
# Submitted via: audiograbber 1.83.01
#
DISCID=ee110532
DTITLE=Westar Music - WSR190
DYEAR=2003
DGENRE=Country
TTITLE0=Corn Liquor
TTITLE1=Corn Liquor
TTITLE2=Iron Creek Boogie
TTITLE3=Iron Creek Boogie
TTITLE4=Legend of Nashville
TTITLE5=Legend of Nashville
TTITLE6=Runaway Reflections
TTITLE7=Runaway Reflections
TTITLE8=Raised in Texas
TTITLE9=Raised in Texas
TTITLE10=Off Road Ramble
TTITLE11=Off Road Ramble
TTITLE12=Wilson County Fair
TTITLE13=Wilson County Fair
TTITLE14=Down Music Row
TTITLE15=Down Music Row
TTITLE16=Kansas Blender
TTITLE17=Kansas Blender
TTITLE18=Revelation
TTITLE19=Revelation
TTITLE20=Corn Liquor
TTITLE21=Iron Creek Boogie
TTITLE22=Legend of Nashville
TTITLE23=Runaway Reflections
TTITLE24=Raised in Texas
TTITLE25=Off Road Ramble
TTITLE26=Wilson County Fair
TTITLE27=Down Music Row
TTITLE28=Kansas Blender
TTITLE29=Revelation
TTITLE30=Corn Liquor
TTITLE31=Iron Creek Boogie
TTITLE32=Legend of Nashville
TTITLE33=Runaway Reflections
TTITLE34=Raised in Texas
TTITLE35=Off Road Ramble
TTITLE36=Wilson County Fair
TTITLE37=Down Music Row
TTITLE38=Kansas Blender
TTITLE39=Revelation
TTITLE40=Corn Liquor
TTITLE41=Iron Creek Boogie
TTITLE42=Legend of Nashville
TTITLE43=Runaway Reflections
TTITLE44=Raised in Texas
TTITLE45=Off Road Ramble
TTITLE46=Wilson County Fair
TTITLE47=Down Music Row
TTITLE48=Kansas Blender
TTITLE49=Revelation
EXTD=A Bright and Bouncy Mix of Freewheeling New Country Tunes\nAll Music Compo
EXTD=sed by Kelly Richmond (SOCAN]\nAll Music Published by Westar Music Publish
EXTD=ing (SOCAN)
EXTT0=Leisurely, Rustic, Casual
EXTT1=Leisurely, Rustic, Casual\n
EXTT2=Rolling, Swinging, Relaxed
EXTT3=Rolling, Swinging, Relaxed
EXTT4=Positive, Strolling, Lilting
EXTT5=Positive, Strolling, Lilting\n
EXTT6=Toe Tapping, Friendly, Strolling
EXTT7=Toe Tapping, Friendly, Strolling\n
EXTT8=Sauntering, Steady, Robust
EXTT9=Sauntering, Steady, Robust\n
EXTT10=Swinging, Upbeat, Lively
EXTT11=Swinging, Upbeat, Lively\n
EXTT12=Sunny, Easy, Sparkling
EXTT13=Sunny, Easy, Sparkling\n
EXTT14=Running, Playful, Bouncy
EXTT15=Running, Playful, Bouncy\n
EXTT16=Driving, Rousing, Energetic
EXTT17=Driving, Rousing, Energetic\n
EXTT18=Yarning, Plaintive, Forlorn
EXTT19=Yarning, Plaintive, Forlorn\n
EXTT20=Leisurely, Rustic, Casual\n
EXTT21=Rolling, Swinging, Relaxed
EXTT22=Positive, Strolling, Lilting\n
EXTT23=Toe Tapping, Friendly, Strolling\n
EXTT24=Sauntering, Steady, Robust\n
EXTT25=Swinging, Upbeat, Lively\n
EXTT26=Sunny, Easy, Sparkling\n
EXTT27=Running, Playful, Bouncy\n
EXTT28=Driving, Rousing, Energetic\n
EXTT29=Yarning, Plaintive, Forlorn\n
EXTT30=Leisurely, Rustic, Casual\n
EXTT31=Rolling, Swinging, Relaxed
EXTT32=Positive, Strolling, Lilting\n
EXTT33=Toe Tapping, Friendly, Strolling\n
EXTT34=Sauntering, Steady, Robust\n
EXTT35=Swinging, Upbeat, Lively\n
EXTT36=Sunny, Easy, Sparkling\n
EXTT37=Running, Playful, Bouncy\n
EXTT38=Driving, Rousing, Energetic\n
EXTT39=Yarning, Plaintive, Forlorn\n
EXTT40=Leisurely, Rustic, Casual\n
EXTT41=Rolling, Swinging, Relaxed
EXTT42=Positive, Strolling, Lilting\n
EXTT43=Toe Tapping, Friendly, Strolling\n
EXTT44=Sauntering, Steady, Robust\n
EXTT45=Swinging, Upbeat, Lively\n
EXTT46=Sunny, Easy, Sparkling\n
EXTT47=Running, Playful, Bouncy\n
EXTT48=Driving, Rousing, Energetic\n
EXTT49=Yarning, Plaintive, Forlorn\n
PLAYORDER=
